<svg width="54" height="47" viewBox="0 0 54 47" fill="none" xmlns="http://www.w3.org/2000/svg">
<mask id="path-1-inside-1_22_134" fill="white">
<path fill-rule="evenodd" clip-rule="evenodd" d="M40.6297 21.5989C40.1296 21.7048 39.7917 22.1688 39.8115 22.6796C39.8853 24.5765 39.6306 26.5184 39.0084 28.4288C36.1866 37.0936 26.8748 41.8302 18.21 39.0084C9.54526 36.1865 4.80863 26.8748 7.63048 18.21C10.4523 9.54521 19.7641 4.80858 28.4289 7.63043C30.8581 8.42155 32.9786 9.72278 34.7103 11.3768C34.9677 11.6227 35.3278 11.7341 35.676 11.6604C36.447 11.4972 36.7561 10.5734 36.1903 10.0249C34.2307 8.12483 31.8185 6.63094 29.0482 5.72874C19.3331 2.56484 8.89268 7.87561 5.72878 17.5907C2.56489 27.3057 7.87566 37.7462 17.5907 40.9101C27.3058 44.074 37.7462 38.7632 40.9101 29.0481C41.6211 26.8651 41.9041 24.6454 41.8054 22.4799C41.7782 21.8839 41.2134 21.4754 40.6297 21.5989Z"/>
</mask>
<path fill-rule="evenodd" clip-rule="evenodd" d="M40.6297 21.5989C40.1296 21.7048 39.7917 22.1688 39.8115 22.6796C39.8853 24.5765 39.6306 26.5184 39.0084 28.4288C36.1866 37.0936 26.8748 41.8302 18.21 39.0084C9.54526 36.1865 4.80863 26.8748 7.63048 18.21C10.4523 9.54521 19.7641 4.80858 28.4289 7.63043C30.8581 8.42155 32.9786 9.72278 34.7103 11.3768C34.9677 11.6227 35.3278 11.7341 35.676 11.6604C36.447 11.4972 36.7561 10.5734 36.1903 10.0249C34.2307 8.12483 31.8185 6.63094 29.0482 5.72874C19.3331 2.56484 8.89268 7.87561 5.72878 17.5907C2.56489 27.3057 7.87566 37.7462 17.5907 40.9101C27.3058 44.074 37.7462 38.7632 40.9101 29.0481C41.6211 26.8651 41.9041 24.6454 41.8054 22.4799C41.7782 21.8839 41.2134 21.4754 40.6297 21.5989Z" fill="white"/>
<path d="M34.7103 11.3768L35.401 10.6537L34.7103 11.3768ZM41.8054 22.4799L40.8064 22.5254L41.8054 22.4799ZM36.1903 10.0249L35.4942 10.7428L36.1903 10.0249ZM39.8115 22.6796L38.8123 22.7185L39.8115 22.6796ZM39.9593 28.7385C40.6186 26.714 40.8891 24.654 40.8108 22.6408L38.8123 22.7185C38.8816 24.499 38.6426 26.3228 38.0576 28.1192L39.9593 28.7385ZM17.9004 39.9592C27.0903 42.9521 36.9664 37.9284 39.9593 28.7385L38.0576 28.1192C35.4067 36.2588 26.6593 40.7084 18.5197 38.0575L17.9004 39.9592ZM6.67963 17.9003C3.68676 27.0902 8.71046 36.9664 17.9004 39.9592L18.5197 38.0575C10.3801 35.4067 5.9305 26.6593 8.58132 18.5197L6.67963 17.9003ZM28.7385 6.67958C19.5486 3.68671 9.6725 8.71041 6.67963 17.9003L8.58132 18.5197C11.2322 10.38 19.9796 5.93045 28.1192 8.58128L28.7385 6.67958ZM35.401 10.6537C33.5632 8.89837 31.3132 7.51809 28.7385 6.67958L28.1192 8.58128C30.4029 9.32502 32.3939 10.5472 34.0196 12.1L35.401 10.6537ZM36.8864 9.30692C34.8198 7.30316 32.2762 5.7283 29.3578 4.77789L28.7385 6.67958C31.3608 7.53358 33.6416 8.94651 35.4942 10.7428L36.8864 9.30692ZM29.3578 4.77789C19.1177 1.44297 8.11285 7.04081 4.77794 17.281L6.67963 17.9003C9.6725 8.71041 19.5486 3.68671 28.7385 6.67958L29.3578 4.77789ZM4.77794 17.281C1.44302 27.5212 7.04086 38.526 17.2811 41.8609L17.9004 39.9592C8.71046 36.9664 3.68676 27.0902 6.67963 17.9003L4.77794 17.281ZM17.2811 41.8609C27.5213 45.1958 38.5261 39.598 41.861 29.3578L39.9593 28.7385C36.9664 37.9284 27.0903 42.9521 17.9004 39.9592L17.2811 41.8609ZM41.861 29.3578C42.6098 27.0585 42.9085 24.7184 42.8044 22.4343L40.8064 22.5254C40.8997 24.5724 40.6324 26.6717 39.9593 28.7385L41.861 29.3578ZM34.0196 12.1C34.5019 12.5606 35.1934 12.7847 35.8831 12.6387L35.4689 10.6821C35.4621 10.6835 35.4335 10.6848 35.401 10.6537L34.0196 12.1ZM42.8044 22.4343C42.7472 21.1796 41.5679 20.3782 40.4226 20.6206L40.8368 22.5773C40.8413 22.5763 40.8375 22.5779 40.831 22.5731C40.8275 22.5705 40.8213 22.5647 40.8155 22.5542C40.809 22.5424 40.8067 22.531 40.8064 22.5254L42.8044 22.4343ZM35.8831 12.6387C37.3516 12.3278 38.0889 10.4728 36.8864 9.30692L35.4942 10.7428C35.4978 10.7462 35.4957 10.7451 35.492 10.7385C35.4884 10.732 35.485 10.7238 35.4829 10.7146C35.4786 10.6963 35.4813 10.6844 35.4825 10.6808C35.4836 10.6776 35.4845 10.6768 35.4846 10.6768C35.4849 10.6765 35.4847 10.6768 35.4834 10.6775C35.4822 10.6781 35.4779 10.6802 35.4689 10.6821L35.8831 12.6387ZM40.8108 22.6408C40.8099 22.6176 40.8173 22.5985 40.8262 22.5866C40.8303 22.5811 40.8336 22.5788 40.8346 22.5781C40.8351 22.5778 40.8353 22.5776 40.8368 22.5773L40.4226 20.6206C39.4136 20.8342 38.7748 21.7547 38.8123 22.7185L40.8108 22.6408Z" fill="white" mask="url(#path-1-inside-1_22_134)"/>
<line x1="21.1396" y1="29.5672" x2="52.2674" y2="7.77127" stroke="white" stroke-width="3"/>
<line x1="12.9642" y1="20.8509" x2="22.9519" y2="29.2316" stroke="white" stroke-width="3"/>
</svg>
