<svg width="45" height="45" viewBox="0 0 45 45" fill="none" xmlns="http://www.w3.org/2000/svg">
<path d="M22.5 30.0002V22.5002M22.5 15.0002H22.5188M5.625 14.8904V30.1099C5.625 30.7524 5.625 31.0736 5.71965 31.3601C5.80341 31.6136 5.9403 31.8463 6.12118 32.0424C6.32567 32.2644 6.60647 32.4204 7.16807 32.7324L21.0431 40.4408C21.5749 40.7363 21.8408 40.8838 22.1222 40.9418C22.3716 40.9931 22.6284 40.9931 22.8778 40.9418C23.1592 40.8838 23.4251 40.7363 23.9569 40.4408L37.8319 32.7324C38.3936 32.4204 38.6743 32.2644 38.8789 32.0424C39.0596 31.8463 39.1967 31.6136 39.2803 31.3601C39.375 31.0736 39.375 30.7524 39.375 30.1099V14.8904C39.375 14.2479 39.375 13.9267 39.2803 13.6402C39.1967 13.3867 39.0596 13.1541 38.8789 12.9578C38.6743 12.7359 38.3936 12.5799 37.8319 12.2679L23.9569 4.55957C23.4251 4.26414 23.1592 4.11643 22.8778 4.05851C22.6284 4.00727 22.3716 4.00727 22.1222 4.05851C21.8408 4.11643 21.5749 4.26414 21.0431 4.55957L7.16807 12.2679C6.60647 12.5799 6.32567 12.7359 6.12118 12.9578C5.9403 13.1541 5.80341 13.3867 5.71965 13.6402C5.625 13.9267 5.625 14.2479 5.625 14.8904Z" stroke="black" stroke-width="2" stroke-linecap="round" stroke-linejoin="round"/>
</svg>
