<svg width="40" height="40" viewBox="0 0 40 40" fill="none" xmlns="http://www.w3.org/2000/svg">
<path d="M39.5113 0.487977C39.1988 0.175526 38.7749 0 38.333 0C37.891 0 37.4672 0.175526 37.1546 0.487977L19.9996 17.643L2.84464 0.487977C2.5321 0.175526 2.10825 0 1.66631 0C1.22437 0 0.800524 0.175526 0.487977 0.487977C0.175526 0.800524 0 1.22437 0 1.66631C0 2.10825 0.175526 2.5321 0.487977 2.84464L17.643 19.9996L0.487977 37.1546C0.175526 37.4672 0 37.891 0 38.333C0 38.7749 0.175526 39.1988 0.487977 39.5113C0.800524 39.8238 1.22437 39.9993 1.66631 39.9993C2.10825 39.9993 2.5321 39.8238 2.84464 39.5113L19.9996 22.3563L37.1546 39.5113C37.4672 39.8238 37.891 39.9993 38.333 39.9993C38.7749 39.9993 39.1988 39.8238 39.5113 39.5113C39.8238 39.1988 39.9993 38.7749 39.9993 38.333C39.9993 37.891 39.8238 37.4672 39.5113 37.1546L22.3563 19.9996L39.5113 2.84464C39.8238 2.5321 39.9993 2.10825 39.9993 1.66631C39.9993 1.22437 39.8238 0.800524 39.5113 0.487977Z" fill="white"/>
</svg>
