<svg width="112" height="112" viewBox="0 0 112 112" fill="none" xmlns="http://www.w3.org/2000/svg">
<path d="M18.6664 101.815C21.4785 102.667 25.2766 102.667 31.733 102.667H80.2663C86.7227 102.667 90.5209 102.667 93.333 101.815M18.6664 101.815C18.0635 101.632 17.5059 101.41 16.9771 101.141C14.3429 99.7985 12.2011 97.657 10.8589 95.0226C9.33301 92.0276 9.33301 88.1076 9.33301 80.2667V31.7333C9.33301 23.8926 9.33301 19.9722 10.8589 16.9775C12.2011 14.3432 14.3429 12.2014 16.9771 10.8592C19.9719 9.33331 23.8923 9.33331 31.733 9.33331H80.2663C88.1073 9.33331 92.0273 9.33331 95.0223 10.8592C97.6567 12.2014 99.7982 14.3432 101.14 16.9775C102.666 19.9722 102.666 23.8926 102.666 31.7333V80.2667C102.666 88.1076 102.666 92.0276 101.14 95.0226C99.7982 97.657 97.6567 99.7985 95.0223 101.141C94.4936 101.41 93.9359 101.632 93.333 101.815M18.6664 101.815C18.668 98.0378 18.6907 96.0395 19.025 94.3581C20.498 86.9535 26.2864 81.165 33.6913 79.6922C35.4945 79.3333 37.6629 79.3333 41.9997 79.3333H69.9997C74.3364 79.3333 76.505 79.3333 78.3082 79.6922C85.7128 81.165 91.5013 86.9535 92.9741 94.3581C93.3087 96.0395 93.3311 98.0378 93.333 101.815M74.6663 44.3333C74.6663 54.6424 66.3088 63 55.9997 63C45.6904 63 37.333 54.6424 37.333 44.3333C37.333 34.024 45.6904 25.6666 55.9997 25.6666C66.3088 25.6666 74.6663 34.024 74.6663 44.3333Z" stroke="black" stroke-width="2" stroke-linecap="round" stroke-linejoin="round"/>
</svg>
