<svg width="50" height="50" viewBox="0 0 50 50" fill="none" xmlns="http://www.w3.org/2000/svg">
<path d="M35.85 1.75H14.15C9.80959 1.75 7.63938 1.75 5.98158 2.5947C4.52331 3.33772 3.33772 4.52331 2.5947 5.98158C1.75 7.63938 1.75 9.80959 1.75 14.15V35.85C1.75 40.1905 1.75 42.3605 2.5947 44.0185C3.33772 45.4768 4.52331 46.6623 5.98158 47.4052C7.63938 48.25 9.80959 48.25 14.15 48.25H35.85C40.1905 48.25 42.3605 48.25 44.0185 47.4052C45.4768 46.6623 46.6623 45.4768 47.4052 44.0185C48.25 42.3605 48.25 40.1905 48.25 35.85V14.15M35.85 1.75C40.1905 1.75 42.3605 1.75 44.0185 2.5947C45.4768 3.33772 46.6623 4.52331 47.4052 5.98158C48.25 7.63938 48.25 9.80959 48.25 14.15M35.85 1.75H33.2667C30.3731 1.75 28.9261 1.75 27.821 2.31314C26.8489 2.80847 26.0584 3.59887 25.5632 4.57105C25 5.67625 25 7.12305 25 10.0167V16.7333C25 19.6269 25 21.0738 25.5632 22.179C26.0584 23.1511 26.8489 23.9416 27.821 24.4368C28.9261 25 30.3731 25 33.2667 25H39.9833C42.8769 25 44.3239 25 45.429 24.4368C46.4011 23.9416 47.1916 23.1511 47.6868 22.179C48.25 21.0738 48.25 19.627 48.25 16.7333V14.15M26.2917 23.7083L12.0833 37.9167M12.0833 37.9167H25M12.0833 37.9167V25" stroke="white" stroke-width="2" stroke-linecap="round" stroke-linejoin="round"/>
</svg>
