<svg width="45" height="45" viewBox="0 0 45 45" fill="none" xmlns="http://www.w3.org/2000/svg">
<path d="M13.8588 4.62868C14.1831 4.3044 14.3452 4.14225 14.5345 4.0263C14.7022 3.92349 14.8851 3.84774 15.0764 3.80181C15.2922 3.75 15.5215 3.75 15.9801 3.75H29.0199C29.4784 3.75 29.7077 3.75 29.9235 3.80181C30.1149 3.84774 30.2977 3.92349 30.4656 4.0263C30.6547 4.14225 30.8169 4.3044 31.1411 4.62868L40.3714 13.8588C40.6956 14.1831 40.8577 14.3452 40.9736 14.5345C41.0766 14.7022 41.1523 14.8851 41.1982 15.0764C41.25 15.2922 41.25 15.5215 41.25 15.9801V29.0199C41.25 29.4784 41.25 29.7077 41.1982 29.9235C41.1523 30.1149 41.0766 30.2977 40.9736 30.4656C40.8577 30.6547 40.6956 30.8169 40.3714 31.1411L31.1411 40.3714C30.8169 40.6956 30.6547 40.8577 30.4656 40.9736C30.2977 41.0766 30.1149 41.1523 29.9235 41.1982C29.7077 41.25 29.4784 41.25 29.0199 41.25H15.9801C15.5215 41.25 15.2922 41.25 15.0764 41.1982C14.8851 41.1523 14.7022 41.0766 14.5345 40.9736C14.3452 40.8577 14.1831 40.6956 13.8588 40.3714L4.62868 31.1411C4.3044 30.8169 4.14225 30.6547 4.0263 30.4656C3.92349 30.2977 3.84774 30.1149 3.80181 29.9235C3.75 29.7077 3.75 29.4784 3.75 29.0199V15.9801C3.75 15.5215 3.75 15.2922 3.80181 15.0764C3.84774 14.8851 3.92349 14.7022 4.0263 14.5345C4.14225 14.3452 4.3044 14.1831 4.62868 13.8588L13.8588 4.62868Z" stroke="black" stroke-width="2" stroke-linecap="round" stroke-linejoin="round"/>
<path fill-rule="evenodd" clip-rule="evenodd" d="M22.4936 17.0023C20.6192 14.811 17.4935 14.2215 15.145 16.2281C12.7965 18.2347 12.4659 21.5897 14.3102 23.9629C15.4915 25.4829 18.5167 28.3016 20.5391 30.132C21.2113 30.7401 21.5473 31.0442 21.9499 31.1662C22.2958 31.2711 22.6913 31.2711 23.0374 31.1662C23.4398 31.0442 23.7759 30.7401 24.4479 30.132C26.4705 28.3016 29.4956 25.4829 30.6771 23.9629C32.5213 21.5897 32.2311 18.2136 29.8421 16.2281C27.4532 14.2426 24.3681 14.811 22.4936 17.0023Z" stroke="black" stroke-width="2" stroke-linecap="round" stroke-linejoin="round"/>
</svg>
