<svg width="54" height="54" viewBox="0 0 54 54" fill="none" xmlns="http://www.w3.org/2000/svg">
<path d="M36 13.5V11.7C36 9.17977 36 7.91964 35.5095 6.95705C35.0782 6.1103 34.3897 5.42189 33.543 4.99048C32.5804 4.5 31.3202 4.5 28.8 4.5H25.2C22.6798 4.5 21.4196 4.5 20.457 4.99048C19.6103 5.42189 18.9219 6.1103 18.4905 6.95705C18 7.91964 18 9.17977 18 11.7V13.5M22.5 25.875V37.125M31.5 25.875V37.125M6.75 13.5H47.25M42.75 13.5V38.7C42.75 42.4805 42.75 44.3704 42.0143 45.8145C41.3672 47.0846 40.3346 48.1172 39.0645 48.7643C37.6204 49.5 35.7304 49.5 31.95 49.5H22.05C18.2696 49.5 16.3795 49.5 14.9356 48.7643C13.6655 48.1172 12.6329 47.0846 11.9857 45.8145C11.25 44.3704 11.25 42.4805 11.25 38.7V13.5" stroke="white" stroke-width="2" stroke-linecap="round" stroke-linejoin="round"/>
</svg>
