<svg width="33" height="33" viewBox="0 0 33 33" fill="none" xmlns="http://www.w3.org/2000/svg">
<path d="M26.125 11V2.75M22 6.875H30.25M30.25 16.5V23.65C30.25 25.9603 30.25 27.1153 29.8004 27.9977C29.4049 28.7739 28.7739 29.4049 27.9977 29.8004C27.1153 30.25 25.9603 30.25 23.65 30.25H9.35C7.03978 30.25 5.88467 30.25 5.00229 29.8004C4.22612 29.4049 3.59508 28.7739 3.1996 27.9977C2.75 27.1153 2.75 25.9603 2.75 23.65V9.35C2.75 7.03978 2.75 5.88467 3.1996 5.00229C3.59508 4.22612 4.22612 3.59508 5.00229 3.1996C5.88467 2.75 7.03978 2.75 9.35 2.75H16.5M2.95039 27.3987C3.59546 25.0781 5.72385 23.375 8.25 23.375H17.875C19.1528 23.375 19.7918 23.375 20.3231 23.4807C22.5048 23.9147 24.2103 25.6202 24.6443 27.802C24.75 28.3333 24.75 28.9722 24.75 30.25M19.25 13.0625C19.25 16.1 16.7875 18.5625 13.75 18.5625C10.7124 18.5625 8.25 16.1 8.25 13.0625C8.25 10.0249 10.7124 7.5625 13.75 7.5625C16.7875 7.5625 19.25 10.0249 19.25 13.0625Z" stroke="black" stroke-width="2" stroke-linecap="round" stroke-linejoin="round"/>
</svg>
